# xmcd
#
# Track frame offsets:
# 150
# 23987
# 35602
# 44582
# 58472
# 72430
# 85775
# 99225
# 112485
# 124460
# 140457
# 155412
# 183632
# 213360
#
# Disc length: 3666 seconds
#
#
# Revision: 2
# Processed by: cddbd v1.5.1PL0 Copyright (c) Steve Scherf et al.
# Submitted via: FreeRIP 2.60 
#
DISCID=da0e500e
DTITLE=Jon Spencer Blues Explosion - Orange
DYEAR=1994
DGENRE=Rock
TTITLE0=Bellbottoms
TTITLE1=Ditch
TTITLE2=Dang
TTITLE3=Very Rare
TTITLE4=Sweat
TTITLE5=Cowboy
TTITLE6=Orange
TTITLE7=Brenda
TTITLE8=Dissect
TTITLE9=Blues X Man
TTITLE10=Full Grown
TTITLE11=Flavor
TTITLE12=Greyhound
TTITLE13=Videos: Bellbottoms - Dang - Flavor and Data
EXTD=
EXTT0=
EXTT1=
EXTT2=
EXTT3=
EXTT4=
EXTT5=
EXTT6=
EXTT7=
EXTT8=
EXTT9=
EXTT10=
EXTT11=
EXTT12=
EXTT13=
PLAYORDER=
